<?xml version="1.0" encoding="utf-8"?>
<!DOCTYPE svg PUBLIC "-//W3C//DTD SVG 20010904//EN" "http://www.w3.org/TR/2001/REC-SVG-20010904/DTD/svg10.dtd">
<svg version="1.0" xmlns="http://www.w3.org/2000/svg" width="15pt" height="16pt" viewBox="0 0 15 16" style="background-color:#886D90" preserveAspectRatio="xMidYMid meet">
<g fill="#895A53FF" stroke="#895A53FF">
<path d="M 7.189 0.677 C 8.117 0.922 9.068 2.108 9.302 3.311 C 9.718 5.452 9.731 5.450 9.864 3.191 C 9.939 1.921 10.419 1.141 10.931 1.457 C 11.443 1.774 12.144 1.575 12.490 1.016 C 12.877 0.389 11.659 0.044 9.309 0.116 C 7.214 0.180 6.260 0.432 7.189 0.677 "/></g>
<g fill="#D6C0C9FF" stroke="#D6C0C9FF">
<path d="M 5.170 7.777 C 4.343 8.052 4.808 8.707 6.429 9.548 C 9.210 10.991 9.746 10.603 7.741 8.598 C 7.049 7.906 5.892 7.536 5.170 7.777 "/></g>
<g fill="#645060FF" stroke="#645060FF">
<path d="M 9.500 10.971 C 8.950 11.430 7.600 12.022 6.500 12.287 C 4.646 12.733 4.659 12.776 6.685 12.884 C 7.886 12.948 9.236 12.356 9.685 11.568 C 10.206 10.653 10.140 10.438 9.500 10.971 "/></g>
<g fill="#645060FF" stroke="#645060FF">
<path d="M 1.319 7.045 C 2.556 8.812 2.835 8.873 3.364 7.493 C 3.719 6.568 3.561 6.153 2.989 6.507 C 2.445 6.843 2.000 6.641 2.000 6.059 C 2.000 5.477 1.524 5.000 0.943 5.000 C 0.324 5.000 0.479 5.846 1.319 7.045 "/></g>
<g fill="#BD959BFF" stroke="#BD959BFF">
<path d="M 9.000 15.000 C 9.000 15.550 9.450 16.000 10.000 16.000 C 10.550 16.000 11.000 15.550 11.000 15.000 C 11.000 14.450 10.550 14.000 10.000 14.000 C 9.450 14.000 9.000 14.450 9.000 15.000 "/></g>
<g fill="#BD959BFF" stroke="#BD959BFF">
<path d="M 10.645 11.688 C 10.267 12.067 10.642 12.477 11.478 12.600 C 12.315 12.723 13.000 12.413 13.000 11.912 C 13.000 10.837 11.626 10.707 10.645 11.688 "/></g>
<g fill="#D6C0C9FF" stroke="#D6C0C9FF">
<path d="M 11.030 13.250 C 11.014 14.213 11.472 15.000 12.050 15.000 C 12.771 15.000 12.781 14.453 12.080 13.250 C 11.109 11.583 11.059 11.583 11.030 13.250 "/></g>
<g fill="#BD959BFF" stroke="#BD959BFF">
<path d="M 12.624 14.799 C 12.212 15.466 12.390 16.000 13.024 16.000 C 13.653 16.000 13.987 15.460 13.766 14.799 C 13.455 13.865 13.202 13.865 12.624 14.799 "/></g>
<g fill="#BD959BFF" stroke="#BD959BFF">
<path d="M 3.000 5.200 C 3.000 6.133 3.267 6.133 4.200 5.200 C 5.133 4.267 5.133 4.000 4.200 4.000 C 3.540 4.000 3.000 4.540 3.000 5.200 "/></g>
<g fill="#BD959BFF" stroke="#BD959BFF">
<path d="M 7.387 2.157 C 8.776 2.963 9.090 2.955 8.578 2.126 C 8.195 1.507 7.346 1.014 6.691 1.030 C 6.036 1.047 6.349 1.554 7.387 2.157 "/></g>
<g fill="#D6C0C9FF" stroke="#D6C0C9FF">
<path d="M 6.800 3.200 C 7.733 4.133 8.000 4.133 8.000 3.200 C 8.000 2.540 7.460 2.000 6.800 2.000 C 5.867 2.000 5.867 2.267 6.800 3.200 "/></g>
</svg>
